<svg width="32" height="32" viewBox="0 0 32 32" fill="none" xmlns="http://www.w3.org/2000/svg">
<path d="M30.2667 19.0667L28.9333 20.4L26.2667 17.7333L27.6 16.4C27.7333 16.2667 27.8667 16.1333 28.1333 16.1333C28.2667 16.1333 28.5333 16.2667 28.6667 16.4L30.4 18.1333C30.5333 18.4 30.5333 18.8 30.2667 19.0667ZM17.3333 26.5333V29.3333H20.1333L28.2667 21.2L25.6 18.5333L17.3333 26.5333ZM28 6.66667C28 5.2 26.8 4 25.3333 4H6.66667C5.2 4 4 5.2 4 6.66667V25.3333C4 26.8 5.2 28 6.66667 28H14.6667V25.4667L16.1333 24H6.66667L11.3333 18L14.6667 22L19.3333 16L21.4667 18.8L28 12.1333V6.66667Z" fill="#2A4178"/>
</svg>
