<svg width="24" height="25" viewBox="0 0 24 25" fill="none" xmlns="http://www.w3.org/2000/svg">
<path fill-rule="evenodd" clip-rule="evenodd" d="M7.42245 20.0745C7.84445 20.0745 8.18745 20.4175 8.18745 20.8395C8.18745 21.2615 7.84445 21.6035 7.42245 21.6035C7.00045 21.6035 6.65845 21.2615 6.65845 20.8395C6.65845 20.4175 7.00045 20.0745 7.42245 20.0745Z" stroke="#212844" stroke-width="1.5" stroke-linecap="round" stroke-linejoin="round"/>
<path fill-rule="evenodd" clip-rule="evenodd" d="M18.6749 20.0745C19.0969 20.0745 19.4399 20.4175 19.4399 20.8395C19.4399 21.2615 19.0969 21.6035 18.6749 21.6035C18.2529 21.6035 17.9099 21.2615 17.9099 20.8395C17.9099 20.4175 18.2529 20.0745 18.6749 20.0745Z" stroke="#212844" stroke-width="1.5" stroke-linecap="round" stroke-linejoin="round"/>
<path d="M2.75 3.50415L4.83 3.86415L5.793 15.3372C5.871 16.2722 6.652 16.9902 7.59 16.9902H18.502C19.398 16.9902 20.158 16.3321 20.287 15.4441L21.236 8.88615C21.353 8.07715 20.726 7.35315 19.909 7.35315H5.164" stroke="#212844" stroke-width="1.5" stroke-linecap="round" stroke-linejoin="round"/>
<path d="M14.1255 11.0492H16.8985" stroke="#212844" stroke-width="1.5" stroke-linecap="round" stroke-linejoin="round"/>
</svg>
