<svg width="30" height="22" viewBox="0 0 30 22" fill="none" xmlns="http://www.w3.org/2000/svg">
<path d="M24.7294 5.86987H21.3904V3.19864C21.3904 1.72946 20.1883 0.527405 18.7191 0.527405H2.69174C1.22256 0.527405 0.0205078 1.72946 0.0205078 3.19864V15.2192C0.0205078 16.6884 1.22256 17.8904 2.69174 17.8904C2.69174 20.1075 4.48147 21.8973 6.69859 21.8973C8.91571 21.8973 10.7054 20.1075 10.7054 17.8904H18.7191C18.7191 20.1075 20.5089 21.8973 22.726 21.8973C24.9431 21.8973 26.7328 20.1075 26.7328 17.8904H28.0685C28.803 17.8904 29.4041 17.2894 29.4041 16.5548V12.1072C29.4041 11.5329 29.2171 10.9719 28.8698 10.5045L25.7979 6.40412C25.5441 6.07021 25.1435 5.86987 24.7294 5.86987ZM6.69859 19.226C5.964 19.226 5.36297 18.625 5.36297 17.8904C5.36297 17.1558 5.964 16.5548 6.69859 16.5548C7.43318 16.5548 8.03421 17.1558 8.03421 17.8904C8.03421 18.625 7.43318 19.226 6.69859 19.226ZM24.7294 7.8733L27.3472 11.2123H21.3904V7.8733H24.7294ZM22.726 19.226C21.9914 19.226 21.3904 18.625 21.3904 17.8904C21.3904 17.1558 21.9914 16.5548 22.726 16.5548C23.4606 16.5548 24.0616 17.1558 24.0616 17.8904C24.0616 18.625 23.4606 19.226 22.726 19.226Z" fill="#2A4178"/>
</svg>
