<svg width="26" height="27" viewBox="0 0 26 27" fill="none" xmlns="http://www.w3.org/2000/svg">
<path d="M22.7006 14.7966C22.7541 14.3959 22.7808 13.9819 22.7808 13.5411C22.7808 13.1137 22.7541 12.6863 22.6873 12.2856L25.3986 10.1753C25.5154 10.079 25.5953 9.94521 25.6245 9.79665C25.6537 9.6481 25.6305 9.494 25.5589 9.36062L22.9945 4.92637C22.919 4.79223 22.7984 4.68914 22.6542 4.63535C22.51 4.58157 22.3514 4.58057 22.2065 4.63254L19.0143 5.91473C18.3465 5.40719 17.6387 4.9798 16.8506 4.65925L16.3698 1.26678C16.3462 1.1139 16.2685 0.974561 16.1508 0.874081C16.0332 0.773601 15.8834 0.718641 15.7287 0.719181H10.6C10.2794 0.719181 10.0256 0.946236 9.97222 1.26678L9.49139 4.65925C8.70338 4.9798 7.98215 5.42055 7.3277 5.91473L4.13557 4.63254C3.84174 4.52569 3.50783 4.63254 3.34756 4.92637L0.796531 9.36062C0.636257 9.6411 0.689681 9.98836 0.956805 10.1753L3.66811 12.2856C3.60133 12.6863 3.5479 13.1271 3.5479 13.5411C3.5479 13.9551 3.57461 14.3959 3.64139 14.7966L0.930092 16.9069C0.813258 17.0032 0.733428 17.137 0.704203 17.2855C0.674978 17.4341 0.698167 17.5882 0.769818 17.7216L3.3342 22.1558C3.49448 22.4497 3.82838 22.5432 4.12222 22.4497L7.31434 21.1675C7.98215 21.675 8.69002 22.1024 9.47804 22.4229L9.95886 25.8154C10.0256 26.136 10.2794 26.363 10.6 26.363H15.7287C16.0493 26.363 16.3164 26.136 16.3565 25.8154L16.8373 22.4229C17.6253 22.1024 18.3465 21.675 19.001 21.1675L22.1931 22.4497C22.4869 22.5565 22.8208 22.4497 22.9811 22.1558L25.5455 17.7216C25.7058 17.4277 25.639 17.0938 25.3852 16.9069L22.7006 14.7966V14.7966ZM13.1643 18.3493C10.5198 18.3493 8.35612 16.1856 8.35612 13.5411C8.35612 10.8966 10.5198 8.73288 13.1643 8.73288C15.8089 8.73288 17.9726 10.8966 17.9726 13.5411C17.9726 16.1856 15.8089 18.3493 13.1643 18.3493Z" fill="#2A4178"/>
</svg>
