<svg width="25" height="25" viewBox="0 0 25 25" fill="none" xmlns="http://www.w3.org/2000/svg">
<path d="M2.02751 14.0479H10.0412C10.7758 14.0479 11.3768 13.4469 11.3768 12.7123V2.02739C11.3768 1.2928 10.7758 0.691772 10.0412 0.691772H2.02751C1.29292 0.691772 0.691895 1.2928 0.691895 2.02739V12.7123C0.691895 13.4469 1.29292 14.0479 2.02751 14.0479ZM2.02751 24.7329H10.0412C10.7758 24.7329 11.3768 24.1318 11.3768 23.3973V18.0548C11.3768 17.3202 10.7758 16.7192 10.0412 16.7192H2.02751C1.29292 16.7192 0.691895 17.3202 0.691895 18.0548V23.3973C0.691895 24.1318 1.29292 24.7329 2.02751 24.7329ZM15.3837 24.7329H23.3974C24.132 24.7329 24.733 24.1318 24.733 23.3973V12.7123C24.733 11.9777 24.132 11.3767 23.3974 11.3767H15.3837C14.6491 11.3767 14.0481 11.9777 14.0481 12.7123V23.3973C14.0481 24.1318 14.6491 24.7329 15.3837 24.7329ZM14.0481 2.02739V7.36985C14.0481 8.10444 14.6491 8.70547 15.3837 8.70547H23.3974C24.132 8.70547 24.733 8.10444 24.733 7.36985V2.02739C24.733 1.2928 24.132 0.691772 23.3974 0.691772H15.3837C14.6491 0.691772 14.0481 1.2928 14.0481 2.02739Z" fill="#2A4178"/>
</svg>
