<svg width="23" height="13" viewBox="0 0 23 13" fill="none" xmlns="http://www.w3.org/2000/svg">
<path d="M22.7072 1.29299C22.5197 1.10552 22.2654 1.0002 22.0002 1.0002C21.735 1.0002 21.4807 1.10552 21.2932 1.29299L12.0002 10.586L2.70721 1.29299C2.61497 1.19748 2.50462 1.1213 2.38262 1.06889C2.26061 1.01648 2.12939 0.988893 1.99661 0.987739C1.86384 0.986585 1.73216 1.01189 1.60926 1.06217C1.48636 1.11245 1.37471 1.1867 1.28082 1.28059C1.18693 1.37449 1.11267 1.48614 1.06239 1.60904C1.01211 1.73193 0.986809 1.86361 0.987963 1.99639C0.989117 2.12917 1.0167 2.26039 1.06911 2.38239C1.12152 2.5044 1.1977 2.61474 1.29321 2.70699L11.2932 12.707C11.4807 12.8945 11.735 12.9998 12.0002 12.9998C12.2654 12.9998 12.5197 12.8945 12.7072 12.707L22.7072 2.70699C22.8947 2.51946 23 2.26515 23 1.99999C23 1.73483 22.8947 1.48052 22.7072 1.29299Z" fill="#8B8B8B"/>
</svg>
