<svg width="439" height="335" viewBox="0 0 439 335" fill="none" xmlns="http://www.w3.org/2000/svg">
<g clip-path="url(#clip0_3_595)">
<path fill-rule="evenodd" clip-rule="evenodd" d="M218.85 97.0001C226.327 99.1337 232.945 103.562 237.77 109.66L227.59 118.15C220.77 104.69 195.97 100.35 189.14 122.29C186.77 129.89 186.49 141.51 188.73 149.08C194.44 168.38 215.07 170.87 227.31 154.91L238.06 161.7C232 172.06 221.05 177 205 176.13C187.39 174.52 174.18 165.89 174.18 136.26C174.67 112.78 183.11 102.46 195.13 98.1101C202.717 95.2268 211.026 94.838 218.85 97.0001Z" fill="white"/>
<path fill-rule="evenodd" clip-rule="evenodd" d="M307.23 96.67H320.09V174.43H307.23V140.13H273.76V174.43H260.9V96.67H273.76V129.42H307.23V96.67Z" fill="white"/>
<path fill-rule="evenodd" clip-rule="evenodd" d="M378.45 95.88C396.96 95.22 402.76 102.61 409.05 109.68L398.4 117.63C396.834 114.732 394.603 112.247 391.889 110.379C389.176 108.511 386.058 107.314 382.792 106.885C379.526 106.457 376.204 106.809 373.101 107.914C369.998 109.019 367.201 110.844 364.94 113.24C354.58 124.24 356.29 153.86 367.73 161.98C373.17 165.84 384.44 166.21 390.67 164.26C392.583 163.669 394.384 162.763 396 161.58L395.85 145.53H379.05V135.33H408.3V167.28C400.38 174.19 389.88 176.67 377.55 175.98C362.94 175.69 353.23 169.41 348.55 156.98C345.45 148.79 344.67 137.24 345.42 128.42C347.24 106.92 359.78 97.84 378.42 95.85" fill="white"/>
<path fill-rule="evenodd" clip-rule="evenodd" d="M152.91 70.76C153.109 70.76 153.3 70.839 153.44 70.9797C153.581 71.1203 153.66 71.3111 153.66 71.51V277.31C153.66 277.509 153.581 277.7 153.44 277.84C153.3 277.981 153.109 278.06 152.91 278.06C152.711 278.06 152.52 277.981 152.38 277.84C152.239 277.7 152.16 277.509 152.16 277.31V71.51C152.163 71.3119 152.242 71.1226 152.383 70.9825C152.523 70.8424 152.712 70.7626 152.91 70.76Z" fill="white"/>
<path d="M152.91 70.76C153.109 70.76 153.3 70.839 153.44 70.9797C153.581 71.1203 153.66 71.3111 153.66 71.51V277.31C153.66 277.509 153.581 277.7 153.44 277.84C153.3 277.981 153.109 278.06 152.91 278.06C152.711 278.06 152.52 277.981 152.38 277.84C152.239 277.7 152.16 277.509 152.16 277.31V71.51C152.163 71.3119 152.242 71.1226 152.383 70.9825C152.523 70.8424 152.712 70.7626 152.91 70.76Z" stroke="white" stroke-width="0.57" stroke-miterlimit="22.93"/>
<path d="M385.23 220.7L387.95 220.43C388.042 221.192 388.395 221.899 388.95 222.43C389.518 222.877 390.228 223.105 390.95 223.07C391.663 223.119 392.37 222.918 392.95 222.5C393.157 222.345 393.326 222.144 393.444 221.914C393.562 221.683 393.625 221.429 393.63 221.17C393.64 220.869 393.54 220.574 393.35 220.34C393.073 220.058 392.729 219.851 392.35 219.74C392.03 219.627 391.29 219.427 390.13 219.14C388.999 218.929 387.931 218.46 387.01 217.77C386.606 217.429 386.283 217.003 386.063 216.522C385.844 216.042 385.733 215.518 385.74 214.99C385.734 214.278 385.943 213.581 386.34 212.99C386.75 212.356 387.348 211.867 388.05 211.59C388.912 211.249 389.834 211.086 390.76 211.11C392.152 211.007 393.534 211.412 394.65 212.25C395.082 212.636 395.427 213.109 395.663 213.638C395.899 214.168 396.021 214.741 396.02 215.32L393.23 215.42C393.178 214.83 392.907 214.28 392.47 213.88C391.955 213.535 391.338 213.373 390.72 213.42C390.056 213.378 389.396 213.554 388.84 213.92C388.7 214.014 388.586 214.143 388.509 214.293C388.432 214.444 388.395 214.611 388.4 214.78C388.402 214.94 388.44 215.098 388.511 215.242C388.581 215.385 388.684 215.511 388.81 215.61C389.593 216.08 390.458 216.396 391.36 216.54C392.396 216.753 393.403 217.089 394.36 217.54C394.986 217.858 395.512 218.342 395.88 218.94C396.259 219.619 396.449 220.387 396.43 221.165C396.411 221.943 396.183 222.701 395.77 223.36C395.328 224.055 394.677 224.591 393.91 224.89C392.953 225.255 391.933 225.425 390.91 225.39C389.476 225.482 388.057 225.056 386.91 224.19C385.926 223.275 385.329 222.02 385.24 220.68M375.18 225.14V211.39H378V225.16L375.18 225.14ZM357.1 225.14V211.39H367.3V213.71H359.89V216.77H366.78V219.1H359.89V222.84H367.57V225.16L357.1 225.14ZM342.44 225.14L337.51 211.37H340.51L344.01 221.57L347.37 211.37H350.37L345.47 225.14H342.44ZM324.08 210.14L325.39 207.33H328.33L325.74 210.14H324.08ZM327 219.7L325.08 214.6L323.22 219.7H327ZM332.1 225.16H329.1L327.88 222H322.36L321.21 225.13H318.26L323.61 211.36H326.56L332.1 225.16ZM305.68 225.16V213.71H301.6V211.39H312.53V213.71H308.47V225.16H305.68ZM286.13 217.22H288.19C289.027 217.261 289.866 217.204 290.69 217.05C291.007 216.943 291.281 216.736 291.47 216.46C291.662 216.162 291.759 215.814 291.75 215.46C291.771 215.05 291.639 214.648 291.38 214.33C291.102 214.035 290.731 213.844 290.33 213.79C290.11 213.79 289.43 213.79 288.33 213.79H286.16L286.13 217.22ZM283.34 225.16V211.39H289.2C290.283 211.338 291.367 211.463 292.41 211.76C293.08 212.007 293.647 212.472 294.02 213.08C294.424 213.731 294.632 214.484 294.62 215.25C294.656 216.188 294.33 217.105 293.71 217.81C292.983 218.543 292.019 218.993 290.99 219.08C291.541 219.392 292.043 219.783 292.48 220.24C293.067 220.94 293.592 221.689 294.05 222.48L295.73 225.16H292.41L290.41 222.16C289.97 221.458 289.479 220.789 288.94 220.16C288.71 219.902 288.422 219.703 288.1 219.58C287.643 219.46 287.172 219.409 286.7 219.43H286.13V225.18L283.34 225.16ZM272.13 219.7L270.21 214.6L268.35 219.7H272.13ZM277.23 225.16H274.23L273 222H267.47L266.33 225.13H263.38L268.73 211.36H271.68L277.23 225.16ZM255.1 220.08L257.79 220.91C257.498 222.234 256.773 223.424 255.73 224.29C254.67 225.062 253.38 225.453 252.07 225.4C251.227 225.422 250.388 225.266 249.609 224.942C248.831 224.618 248.129 224.133 247.55 223.52C246.318 222.104 245.687 220.264 245.79 218.39C245.668 216.445 246.303 214.529 247.56 213.04C248.159 212.407 248.887 211.911 249.694 211.583C250.501 211.255 251.369 211.104 252.24 211.14C253.749 211.078 255.223 211.613 256.34 212.63C257.035 213.334 257.523 214.217 257.75 215.18L255 215.83C254.872 215.162 254.509 214.563 253.977 214.139C253.445 213.715 252.779 213.496 252.1 213.52C251.629 213.504 251.16 213.595 250.729 213.785C250.298 213.976 249.915 214.261 249.61 214.62C248.865 215.65 248.51 216.912 248.61 218.18C248.494 219.491 248.825 220.802 249.55 221.9C249.848 222.257 250.224 222.542 250.648 222.732C251.073 222.923 251.535 223.014 252 223C252.704 223.018 253.388 222.763 253.91 222.29C254.521 221.693 254.93 220.92 255.08 220.08H255.1ZM227.37 220.7L230.09 220.43C230.182 221.192 230.535 221.899 231.09 222.43C231.658 222.877 232.368 223.105 233.09 223.07C233.803 223.12 234.511 222.918 235.09 222.5C235.297 222.345 235.466 222.144 235.584 221.914C235.702 221.683 235.765 221.429 235.77 221.17C235.78 220.869 235.68 220.574 235.49 220.34C235.213 220.058 234.869 219.851 234.49 219.74C234.17 219.627 233.43 219.427 232.27 219.14C231.139 218.929 230.071 218.46 229.15 217.77C228.746 217.429 228.423 217.003 228.203 216.522C227.984 216.042 227.873 215.518 227.88 214.99C227.874 214.278 228.083 213.581 228.48 212.99C228.89 212.356 229.488 211.867 230.19 211.59C231.052 211.249 231.973 211.086 232.9 211.11C234.292 211.007 235.674 211.412 236.79 212.25C237.222 212.636 237.567 213.109 237.803 213.638C238.039 214.168 238.161 214.741 238.16 215.32L235.37 215.42C235.318 214.83 235.047 214.28 234.61 213.88C234.095 213.535 233.478 213.373 232.86 213.42C232.196 213.378 231.536 213.554 230.98 213.92C230.84 214.014 230.726 214.143 230.649 214.293C230.572 214.444 230.535 214.611 230.54 214.78C230.542 214.94 230.58 215.098 230.651 215.242C230.721 215.385 230.824 215.511 230.95 215.61C231.733 216.08 232.598 216.396 233.5 216.54C234.536 216.753 235.543 217.089 236.5 217.54C237.126 217.877 237.646 218.383 238 219C238.386 219.667 238.577 220.43 238.55 221.2C238.548 221.987 238.323 222.757 237.9 223.42C237.452 224.109 236.802 224.643 236.04 224.95C235.083 225.312 234.063 225.482 233.04 225.45C231.606 225.542 230.187 225.116 229.04 224.25C228.04 223.329 227.434 222.057 227.35 220.7H227.37ZM209.92 225.16V211.39H220.12V213.71H212.71V216.77H219.6V219.1H212.71V222.84H220.39V225.16H209.92ZM193.47 213.71V222.84H195.54C196.1 222.858 196.661 222.811 197.21 222.7C197.627 222.611 198.013 222.415 198.33 222.13C198.687 221.759 198.939 221.3 199.06 220.8C199.273 219.978 199.367 219.129 199.34 218.28C199.372 217.454 199.277 216.628 199.06 215.83C198.912 215.325 198.64 214.864 198.27 214.49C197.909 214.165 197.467 213.943 196.99 213.85C196.239 213.732 195.479 213.685 194.72 213.71H193.47ZM190.68 211.39H195.75C196.631 211.357 197.512 211.445 198.37 211.65C199.162 211.877 199.878 212.317 200.44 212.92C201.037 213.558 201.488 214.319 201.76 215.15C202.085 216.205 202.237 217.306 202.21 218.41C202.233 219.404 202.087 220.394 201.78 221.34C201.491 222.256 200.987 223.089 200.31 223.77C199.755 224.285 199.087 224.661 198.36 224.87C197.559 225.091 196.73 225.189 195.9 225.16H190.68V211.39Z" fill="white"/>
<path d="M399.1 239.8L397.19 234.7L395.33 239.8H399.1ZM404.2 245.26H401.2L400 242.13H394.47L393.33 245.26H390.33L395.68 231.49H398.63L404.2 245.26ZM374.2 245.26V242.76L381.46 233.82H375V231.49H385.1V233.64L377.56 242.94H385.39V245.26H374.2ZM357.2 245.26V231.49H367.4V233.82H360V236.87H366.89V239.2H360V242.94H367.68V245.26H357.2ZM342.2 233.82V237.74H343.71C344.45 237.784 345.193 237.709 345.91 237.52C346.26 237.388 346.56 237.15 346.77 236.84C346.984 236.525 347.096 236.151 347.09 235.77C347.106 235.313 346.948 234.867 346.65 234.52C346.353 234.2 345.96 233.986 345.53 233.91C344.866 233.831 344.198 233.801 343.53 233.82H342.2ZM339.41 245.26V231.49H343.87C344.974 231.443 346.08 231.51 347.17 231.69C347.971 231.899 348.677 232.375 349.17 233.04C349.734 233.82 350.016 234.768 349.97 235.73C349.995 236.467 349.837 237.199 349.51 237.86C349.24 238.401 348.842 238.868 348.35 239.22C347.917 239.528 347.428 239.749 346.91 239.87C345.958 240.023 344.994 240.09 344.03 240.07H342.22V245.26H339.41ZM317.99 245.26V231.49H322.17L324.64 240.88L327.08 231.49H331.27V245.26H328.69V234.42L326 245.26H323.31L320.61 234.42V245.26H317.99ZM307.24 245.26V231.49H310V245.26H307.24ZM290.66 245.26V231.6H293.45V242.94H300.36V245.26H290.66ZM269.96 238.96C269.419 239.212 268.951 239.597 268.6 240.08C268.316 240.462 268.158 240.924 268.15 241.4C268.142 241.659 268.187 241.918 268.283 242.159C268.38 242.399 268.525 242.618 268.71 242.8C268.908 242.987 269.143 243.131 269.399 243.224C269.655 243.317 269.928 243.356 270.2 243.34C270.609 243.342 271.014 243.26 271.39 243.1C271.837 242.886 272.254 242.613 272.63 242.29L269.96 238.96ZM270.96 236.09L271.67 235.54C271.883 235.41 272.064 235.234 272.199 235.024C272.334 234.815 272.42 234.577 272.45 234.33C272.454 234.166 272.421 234.003 272.356 233.853C272.29 233.703 272.193 233.569 272.07 233.46C271.796 233.214 271.437 233.085 271.07 233.1C270.708 233.076 270.351 233.19 270.07 233.42C269.964 233.51 269.878 233.622 269.818 233.748C269.757 233.874 269.724 234.011 269.72 234.15C269.775 234.602 269.983 235.022 270.31 235.34L270.96 236.09ZM278.15 243.59L276.55 245.59C275.721 245.18 274.959 244.648 274.29 244.01C273.77 244.486 273.166 244.862 272.51 245.12C271.795 245.375 271.039 245.497 270.28 245.48C269.569 245.528 268.856 245.424 268.188 245.173C267.521 244.923 266.914 244.534 266.41 244.03C265.761 243.328 265.403 242.406 265.41 241.45C265.4 240.588 265.678 239.747 266.2 239.06C266.834 238.275 267.642 237.649 268.56 237.23C268.139 236.744 267.783 236.207 267.5 235.63C267.275 235.182 267.152 234.691 267.14 234.19C267.137 233.784 267.225 233.383 267.398 233.016C267.571 232.649 267.825 232.325 268.14 232.07C268.952 231.442 269.966 231.133 270.99 231.2C271.998 231.141 272.991 231.467 273.77 232.11C274.089 232.386 274.344 232.729 274.516 233.114C274.689 233.5 274.776 233.918 274.77 234.34C274.764 234.905 274.59 235.455 274.27 235.92C273.723 236.614 273.043 237.192 272.27 237.62L274.17 240.17C274.426 239.675 274.621 239.152 274.75 238.61L277.14 239.15C276.971 239.782 276.764 240.403 276.52 241.01C276.368 241.363 276.177 241.699 275.95 242.01C276.312 242.339 276.696 242.643 277.1 242.92C277.433 243.174 277.788 243.398 278.16 243.59H278.15ZM236.36 240.8L239.07 240.53C239.163 241.292 239.516 241.998 240.07 242.53C240.638 242.977 241.348 243.205 242.07 243.17C242.783 243.218 243.49 243.016 244.07 242.6C244.277 242.445 244.446 242.244 244.564 242.014C244.682 241.783 244.745 241.529 244.75 241.27C244.757 240.967 244.654 240.672 244.46 240.44C244.185 240.156 243.84 239.949 243.46 239.84C243.127 239.727 242.387 239.527 241.24 239.24C240.106 239.028 239.035 238.56 238.11 237.87C237.443 237.293 237.008 236.494 236.885 235.62C236.762 234.747 236.959 233.859 237.44 233.12C237.857 232.488 238.457 232 239.16 231.72C240.018 231.379 240.937 231.216 241.86 231.24C243.252 231.137 244.634 231.542 245.75 232.38C246.183 232.765 246.53 233.238 246.766 233.767C247.002 234.297 247.123 234.87 247.12 235.45L244.33 235.55C244.282 234.959 244.01 234.408 243.57 234.01C243.058 233.665 242.445 233.503 241.83 233.55C241.163 233.51 240.5 233.685 239.94 234.05C239.8 234.144 239.686 234.273 239.609 234.423C239.532 234.574 239.495 234.741 239.5 234.91C239.497 235.072 239.534 235.232 239.608 235.377C239.681 235.521 239.788 235.646 239.92 235.74C240.703 236.21 241.568 236.526 242.47 236.67C243.506 236.883 244.513 237.219 245.47 237.67C246.096 237.988 246.622 238.472 246.99 239.07C247.369 239.749 247.559 240.517 247.54 241.295C247.521 242.073 247.293 242.831 246.88 243.49C246.432 244.179 245.782 244.713 245.02 245.02C244.064 245.388 243.044 245.561 242.02 245.53C240.585 245.619 239.165 245.19 238.02 244.32C237.038 243.402 236.447 242.142 236.37 240.8H236.36ZM227.36 231.49H230V233.38C230.022 233.987 229.955 234.593 229.8 235.18C229.663 235.635 229.408 236.046 229.06 236.37C228.66 236.747 228.182 237.03 227.66 237.2L227.15 236.11C227.594 235.991 227.989 235.735 228.28 235.38C228.523 235.006 228.646 234.566 228.63 234.12H227.36V231.49ZM216.67 245.26V231.49H219.46V245.26H216.67ZM201.67 233.82V237.74H203.19C203.927 237.784 204.666 237.709 205.38 237.52C205.734 237.391 206.039 237.153 206.25 236.84C206.457 236.522 206.565 236.149 206.56 235.77C206.576 235.313 206.418 234.867 206.12 234.52C205.828 234.194 205.432 233.979 205 233.91C204.336 233.831 203.668 233.801 203 233.82H201.67ZM198.88 245.26V231.49H203.34C204.447 231.444 205.556 231.511 206.65 231.69C207.451 231.899 208.157 232.375 208.65 233.04C209.21 233.822 209.492 234.769 209.45 235.73C209.47 236.467 209.312 237.197 208.99 237.86C208.713 238.4 208.312 238.866 207.82 239.22C207.388 239.53 206.898 239.751 206.38 239.87C205.428 240.024 204.464 240.091 203.5 240.07H201.69V245.26H198.88ZM180.7 245.26V231.49H191V233.82H183.59V236.87H190.48V239.2H183.59V242.94H191.27V245.26H180.7Z" fill="white"/>
<path fill-rule="evenodd" clip-rule="evenodd" d="M60 168.93C75.8 186.81 82.5 180.01 81.9 153.48H85.9L86.2 171.78C84.65 191.96 98.83 171.7 109.6 164.73L111.7 166.08C89.31 183.8 85 205.21 92.14 228.93H71.89C77.48 208.07 77.63 187.99 58.39 170.73L60.04 168.93" fill="#68E500"/>
<path fill-rule="evenodd" clip-rule="evenodd" d="M66.0001 138.78C77 146.49 77.74 161.04 66.6 169.08C55.95 161.64 54.5201 147.08 66.0001 138.78Z" fill="#68E500"/>
<path fill-rule="evenodd" clip-rule="evenodd" d="M86.0601 134.32C90.1201 141.91 86.3001 150.42 77.6201 151.78C73.7001 144.44 77.1201 135.7 86.0601 134.32Z" fill="#68E500"/>
<path fill-rule="evenodd" clip-rule="evenodd" d="M103.61 119.77C107.67 127.36 103.85 135.87 95.17 137.23C91.25 129.89 94.67 121.15 103.61 119.77Z" fill="#68E500"/>
<path fill-rule="evenodd" clip-rule="evenodd" d="M119.64 118.7C122.29 126.89 117.03 134.59 108.24 134.39C105.69 126.48 110.59 118.48 119.64 118.7Z" fill="#68E500"/>
<path fill-rule="evenodd" clip-rule="evenodd" d="M127.65 109.56C131.85 113.25 131.47 119.3 126.5 122.1C122.5 118.54 122.5 112.45 127.65 109.56Z" fill="#68E500"/>
<path fill-rule="evenodd" clip-rule="evenodd" d="M84.6099 106.67C93.5499 110.67 96.0499 120.97 89.1999 128.25C80.5599 124.39 77.5399 114.15 84.6099 106.67Z" fill="#68E500"/>
<path fill-rule="evenodd" clip-rule="evenodd" d="M76.26 119.31C82.38 125.82 80.85 135.37 72.52 139.08C66.61 132.78 67.68 123.08 76.26 119.31Z" fill="#68E500"/>
<path fill-rule="evenodd" clip-rule="evenodd" d="M111.92 138C113.79 150.87 103.99 161 90.92 158.44C89.13 146.01 98.48 135.36 111.92 138Z" fill="#68E500"/>
<path fill-rule="evenodd" clip-rule="evenodd" d="M130.35 124.11C134.55 127.8 134.17 133.85 129.2 136.65C125.2 133.09 125.2 127 130.35 124.11Z" fill="#68E500"/>
<path fill-rule="evenodd" clip-rule="evenodd" d="M110 104.61C114.2 108.3 113.82 114.35 108.85 117.15C104.85 113.59 104.85 107.5 110 104.61Z" fill="#68E500"/>
<path fill-rule="evenodd" clip-rule="evenodd" d="M50.25 107C54.45 110.69 54.07 116.74 49.1 119.54C45.05 115.98 45.1 109.89 50.25 107Z" fill="#68E500"/>
<path fill-rule="evenodd" clip-rule="evenodd" d="M38.85 109.71C43.05 113.4 42.67 119.45 37.7 122.25C33.65 118.69 33.7 112.6 38.85 109.71Z" fill="#68E500"/>
<path fill-rule="evenodd" clip-rule="evenodd" d="M34 125.26C39.58 124.9 43.58 129.45 42 134.94C36.62 135.29 32.37 130.94 34 125.26Z" fill="#68E500"/>
<path fill-rule="evenodd" clip-rule="evenodd" d="M45.82 123C51.4 122.64 55.4 127.18 53.82 132.68C48.44 133.03 44.19 128.68 45.82 123Z" fill="#68E500"/>
<path fill-rule="evenodd" clip-rule="evenodd" d="M27 136.89C34.9 134.89 41.89 140.25 41.21 148.56C33.58 150.56 26.28 145.44 27 136.89Z" fill="#68E500"/>
<path fill-rule="evenodd" clip-rule="evenodd" d="M26.52 155.37C33.79 148.9 44.14 150.84 47.93 160.02C40.93 166.27 30.41 164.83 26.52 155.37Z" fill="#68E500"/>
<path fill-rule="evenodd" clip-rule="evenodd" d="M46.14 165.47C50 161.39 56 162 58.64 167C54.94 170.94 48.86 170.66 46.14 165.45" fill="#68E500"/>
<path fill-rule="evenodd" clip-rule="evenodd" d="M43.81 188C41.45 179.5 47.17 171.85 56.16 172.44C58.44 180.65 53.06 188.62 43.81 188Z" fill="#68E500"/>
<path fill-rule="evenodd" clip-rule="evenodd" d="M83.15 92.3199C87.35 95.9999 87 102.05 82 104.86C78 101.29 78 95.1999 83.15 92.3199Z" fill="#68E500"/>
<path fill-rule="evenodd" clip-rule="evenodd" d="M69.4 102.35C76.15 103.35 79.76 109.77 76.54 115.93C70.03 114.93 66.08 108.69 69.4 102.35Z" fill="#68E500"/>
<path fill-rule="evenodd" clip-rule="evenodd" d="M65.4201 110.06C68.5801 117.06 64.6701 124.42 56.8501 125.12C53.8001 118.35 57.3601 110.76 65.4201 110.06Z" fill="#68E500"/>
<path fill-rule="evenodd" clip-rule="evenodd" d="M91.93 99.5601C100.66 100.34 105.77 108.34 102.07 116.49C93.65 115.73 88.12 107.95 91.93 99.5601Z" fill="#68E500"/>
<path fill-rule="evenodd" clip-rule="evenodd" d="M112 168C121.33 164.73 130.32 170.57 130.32 180.67C121.32 183.82 111.99 178.4 112 168Z" fill="#68E500"/>
<path fill-rule="evenodd" clip-rule="evenodd" d="M137.07 141C135.82 146.45 130.32 149 125.49 145.94C126.7 140.68 132.1 137.86 137.07 141Z" fill="#68E500"/>
<path fill-rule="evenodd" clip-rule="evenodd" d="M56.36 160.16C47 158 40.63 148 46.46 135.11C49.0262 134.944 51.5841 135.542 53.81 136.83C53.34 140.2 53.81 143.24 56.36 145.61C54.8623 150.344 54.8623 155.426 56.36 160.16Z" fill="#68E500"/>
<path fill-rule="evenodd" clip-rule="evenodd" d="M67 136.16C67 131.16 65.36 128.16 62.8 126.16C55.67 130.16 53.66 135.88 57.33 143.64C59.49 139.58 62.24 136.39 67 136.14" fill="#68E500"/>
<path fill-rule="evenodd" clip-rule="evenodd" d="M115 147.71C115.689 145.857 115.94 143.87 115.731 141.904C115.523 139.938 114.862 138.047 113.8 136.38C116.69 132.99 120.07 132.08 124.15 131.88C126.71 142.12 122.85 146.68 115 147.71Z" fill="#68E500"/>
<path fill-rule="evenodd" clip-rule="evenodd" d="M103 160.38C107.5 158.38 111.72 155.84 113.8 149.96C117.02 150.45 119.8 149.24 122.2 146.73L127.68 149.89C123.55 164 114.75 166.24 103 160.38Z" fill="#68E500"/>
<path fill-rule="evenodd" clip-rule="evenodd" d="M123.49 163.24C126.67 158.83 131.13 158.44 136.31 160.24L136.46 168.94C131.04 170.54 126.91 168.04 123.46 163.24" fill="#68E500"/>
</g>
<defs>
<clipPath id="clip0_3_595">
<rect width="439" height="335" fill="white"/>
</clipPath>
</defs>
</svg>
