<svg width="167" height="124" viewBox="0 0 167 124" fill="none" xmlns="http://www.w3.org/2000/svg">
<g clip-path="url(#clip0_23_2491)">
<path fill-rule="evenodd" clip-rule="evenodd" d="M84.4626 33.4405C87.3553 34.3559 89.9153 36.2578 91.7805 38.8771L87.8451 42.5157C85.2087 36.7402 75.6217 34.8694 72.9814 44.3093C72.0652 47.5704 71.9569 52.5606 72.8229 55.8045C75.0263 64.0859 83.0014 65.1543 87.7369 58.3061L91.8887 61.2196C89.5422 65.6607 85.3169 67.7718 79.1008 67.407C72.2894 66.7162 67.1866 63.0132 67.1827 50.2994C67.376 40.2244 70.6348 35.8005 75.3008 33.9297C78.2364 32.6909 81.4518 32.5255 84.4781 33.4577" fill="#040637"/>
<path fill-rule="evenodd" clip-rule="evenodd" d="M118.628 33.2947H123.599V66.6604H118.628V51.9471H105.689V66.6604H100.718V33.2947H105.689V47.3473H118.628V33.2947Z" fill="#09063D"/>
<path fill-rule="evenodd" clip-rule="evenodd" d="M146.164 32.9557C153.315 32.6767 155.561 35.8434 157.993 38.877L153.876 42.3097C153.271 41.0658 152.408 39.9991 151.359 39.1975C150.31 38.3958 149.104 37.8821 147.841 37.6986C146.579 37.5151 145.294 37.6671 144.095 38.142C142.895 38.6169 141.814 39.4012 140.941 40.4303C136.936 45.1503 137.597 57.8555 142.02 61.3397C144.123 63.0003 148.475 63.1548 150.888 62.318C151.628 62.066 152.324 61.6773 152.948 61.1681L152.89 54.2813H146.396V49.8874H157.722V63.6182C154.657 66.5789 150.602 67.6473 145.835 67.3469C140.187 67.2268 136.434 64.5278 134.624 59.1943C133.426 55.6801 133.128 50.7284 133.418 46.9439C134.122 37.7185 138.97 33.8181 146.175 32.9642" fill="#080935"/>
<path fill-rule="evenodd" clip-rule="evenodd" d="M58.9757 22.177C59.0523 22.1781 59.1255 22.2124 59.1796 22.2725C59.2338 22.3326 59.2647 22.4138 59.2657 22.4988V110.818C59.2657 110.903 59.2351 110.985 59.1807 111.045C59.1264 111.106 59.0526 111.14 58.9757 111.14C58.8988 111.14 58.8251 111.106 58.7707 111.045C58.7163 110.985 58.6858 110.903 58.6858 110.818V22.4988C58.6868 22.4138 58.7177 22.3326 58.7718 22.2725C58.826 22.2124 58.8991 22.1781 58.9757 22.177Z" fill="#09063D"/>
<path d="M58.9757 22.177C59.0523 22.1781 59.1255 22.2124 59.1796 22.2725C59.2338 22.3326 59.2647 22.4138 59.2657 22.4988V110.818C59.2657 110.903 59.2351 110.985 59.1807 111.045C59.1264 111.106 59.0526 111.14 58.9757 111.14C58.8988 111.14 58.8251 111.106 58.7707 111.045C58.7163 110.985 58.6858 110.903 58.6858 110.818V22.4988C58.6868 22.4138 58.7177 22.3326 58.7718 22.2725C58.826 22.2124 58.8991 22.1781 58.9757 22.177Z" stroke="#09063D" stroke-width="0.57" stroke-miterlimit="22.93"/>
<path d="M148.785 86.5143L149.836 86.3985C149.872 86.7255 150.008 87.0288 150.223 87.2567C150.442 87.4486 150.717 87.5461 150.996 87.5313C151.271 87.5524 151.545 87.4659 151.769 87.2867C151.849 87.2201 151.914 87.134 151.96 87.0351C152.005 86.9362 152.03 86.8271 152.032 86.716C152.035 86.5867 151.997 86.4604 151.924 86.3599C151.817 86.2389 151.684 86.1515 151.537 86.1067C151.409 86.0552 151.127 85.9694 150.679 85.845C150.241 85.7563 149.828 85.5549 149.473 85.2571C149.317 85.1108 149.192 84.928 149.107 84.7218C149.022 84.5155 148.979 84.291 148.982 84.0642C148.979 83.7588 149.06 83.4596 149.214 83.2061C149.373 82.9354 149.604 82.7257 149.875 82.6054C150.207 82.4594 150.562 82.3894 150.918 82.3994C151.458 82.3538 151.995 82.5293 152.426 82.8928C152.593 83.0576 152.727 83.2598 152.818 83.4862C152.909 83.7125 152.956 83.9578 152.956 84.2058L151.877 84.2488C151.856 83.997 151.751 83.7629 151.583 83.5923C151.385 83.4409 151.147 83.3697 150.907 83.3906C150.65 83.3728 150.395 83.4481 150.18 83.6051C150.126 83.6457 150.082 83.7008 150.052 83.7653C150.022 83.8299 150.008 83.9017 150.01 83.9741C150.011 84.0429 150.025 84.1106 150.053 84.1722C150.08 84.2339 150.12 84.2879 150.168 84.3303C150.471 84.5321 150.806 84.6676 151.154 84.7293C151.555 84.8209 151.944 84.9649 152.314 85.1584C152.555 85.296 152.758 85.5036 152.902 85.7591C153.051 86.0454 153.124 86.3726 153.114 86.7031C153.114 87.0414 153.026 87.3724 152.859 87.6557C152.689 87.9549 152.437 88.1852 152.14 88.3122C151.77 88.4703 151.376 88.5447 150.98 88.531C150.425 88.5692 149.877 88.385 149.434 88.0118C149.054 87.6195 148.823 87.0807 148.788 86.5058M144.899 88.4238V82.5195H145.978V88.4324L144.899 88.4238ZM137.91 88.4238V82.5195H141.853V83.5193H138.989V84.8323H141.652V85.8321H138.989V87.4326H141.958V88.4324L137.91 88.4238ZM132.243 88.4238L130.337 82.511H131.497L132.85 86.8876L134.145 82.511H135.305L133.411 88.4238H132.243ZM125.146 81.9875L125.637 80.7817H126.796L125.795 81.9875H125.146ZM126.27 86.0895L125.528 83.9012L124.809 86.0895H126.27ZM128.242 88.4366H127.082L126.622 87.0893H124.477L124.036 88.4366H122.896L124.964 82.5238H126.104L128.242 88.4366ZM118.029 88.4366V83.5193H116.452V82.5195H120.677V83.5193H119.103V88.4324L118.029 88.4366ZM110.471 85.0039H111.268C111.591 85.0211 111.915 84.9967 112.234 84.931C112.356 84.8866 112.462 84.7993 112.536 84.6821C112.608 84.5538 112.646 84.4047 112.644 84.253C112.65 84.1662 112.641 84.0789 112.617 83.996C112.592 83.9131 112.554 83.8364 112.503 83.7702C112.452 83.704 112.389 83.6496 112.319 83.6103C112.249 83.5709 112.173 83.5473 112.095 83.5408C111.838 83.5191 111.58 83.5119 111.322 83.5193H110.483L110.471 85.0039ZM109.393 88.4366V82.5195H111.658C112.077 82.4974 112.496 82.5511 112.899 82.6783C113.156 82.7848 113.374 82.9843 113.517 83.2447C113.675 83.5236 113.757 83.8468 113.753 84.1758C113.768 84.5786 113.642 84.972 113.401 85.2743C113.121 85.5899 112.748 85.7846 112.35 85.8235C112.562 85.9547 112.755 86.1211 112.922 86.317C113.152 86.6159 113.356 86.9376 113.533 87.2781L114.182 88.4324H112.88L112.106 87.1451C111.935 86.8446 111.745 86.5579 111.538 86.2869C111.451 86.1758 111.339 86.0915 111.213 86.0423C111.036 85.9869 110.852 85.9637 110.668 85.9737H110.452V88.4452L109.393 88.4366ZM105.055 86.0895L104.317 83.9012L103.598 86.0895H105.055ZM107.027 88.4366H105.867L105.407 87.0893H103.269L102.829 88.4324H101.669L103.737 82.5195H104.874L107.027 88.4366ZM98.4758 86.2569L99.5157 86.6087C99.404 87.1775 99.1236 87.6882 98.7194 88.059C98.309 88.389 97.8108 88.5567 97.3045 88.5353C96.9785 88.5448 96.6544 88.4778 96.3533 88.3388C96.0523 88.1998 95.781 87.9919 95.5572 87.7287C95.0781 87.1228 94.8324 86.3323 94.8729 85.5274C94.8278 84.6925 95.0743 83.8704 95.561 83.2318C95.7919 82.9605 96.0725 82.7473 96.384 82.6067C96.6954 82.4661 97.0304 82.4012 97.3663 82.4166C97.6563 82.4026 97.9459 82.4523 98.2185 82.5628C98.4911 82.6732 98.7415 82.8422 98.9552 83.0602C99.2238 83.3609 99.4124 83.738 99.5002 84.1501L98.4372 84.429C98.3876 84.145 98.251 83.8888 98.0506 83.7038C97.8424 83.5264 97.5862 83.4326 97.3238 83.4378C97.1417 83.4309 96.9606 83.4698 96.7939 83.5516C96.6272 83.6333 96.4793 83.7557 96.3613 83.9098C96.0738 84.3523 95.9369 84.8934 95.9747 85.4373C95.9298 85.9997 96.0579 86.5624 96.3381 87.0335C96.4528 87.1877 96.5978 87.3108 96.7619 87.3934C96.9261 87.4759 97.105 87.5157 97.2852 87.5098C97.5566 87.5168 97.8204 87.4095 98.0235 87.2095C98.2587 86.9498 98.4154 86.6154 98.4719 86.2526L98.4758 86.2569ZM87.7561 86.5186L88.8037 86.4028C88.8396 86.7297 88.9762 87.0329 89.1903 87.2609C89.4098 87.4529 89.6843 87.5504 89.9635 87.5356C90.2389 87.556 90.5122 87.4695 90.7366 87.291C90.8167 87.2243 90.882 87.1383 90.9275 87.0394C90.9731 86.9405 90.9977 86.8314 90.9995 86.7203C91.0015 86.5906 90.9617 86.4643 90.8874 86.3642C90.7822 86.2415 90.6484 86.1538 90.5008 86.111C90.3732 86.0595 90.091 85.9737 89.6426 85.8492C89.2036 85.7604 88.7893 85.5592 88.4326 85.2614C88.1749 85.0137 88.0067 84.6708 87.9591 84.2962C87.9115 83.9215 87.9877 83.5404 88.1736 83.2232C88.3358 82.9534 88.5675 82.744 88.8385 82.6225C89.1704 82.4766 89.5254 82.4065 89.8823 82.4166C90.4211 82.3708 90.9563 82.5464 91.386 82.91C91.5558 83.0712 91.692 83.2712 91.7855 83.4964C91.8789 83.7215 91.9273 83.9665 91.9273 84.2144L90.8487 84.2573C90.8259 84.0061 90.7215 83.7728 90.5549 83.6008C90.3567 83.4501 90.118 83.3789 89.8784 83.3992C89.6216 83.3813 89.3665 83.4566 89.1516 83.6137C89.0975 83.6543 89.0535 83.7094 89.0238 83.7739C88.9941 83.8384 88.9795 83.9103 88.9816 83.9827C88.9802 84.0519 88.9938 84.1204 89.0214 84.1824C89.049 84.2444 89.0897 84.2981 89.14 84.3389C89.4426 84.5407 89.7772 84.6762 90.1258 84.7379C90.5263 84.8295 90.9156 84.9735 91.2855 85.167C91.5267 85.3046 91.7298 85.5122 91.8731 85.7677C92.0224 86.054 92.096 86.3811 92.0857 86.7117C92.0858 87.05 91.9972 87.381 91.8306 87.6643C91.6591 87.9616 91.4075 88.1914 91.1116 88.3208C90.742 88.4786 90.3477 88.553 89.9519 88.5396C89.397 88.5778 88.8483 88.3936 88.4056 88.0204C88.0212 87.6305 87.7872 87.091 87.7523 86.5143L87.7561 86.5186ZM81.0104 88.4366V82.5195H84.9535V83.5193H82.0889V84.8323H84.7524V85.8321H82.0889V87.4326H85.0462V88.4324L81.0104 88.4366ZM74.6474 83.5193V87.4326H75.4476C75.664 87.4391 75.8803 87.4204 76.0932 87.3768C76.2534 87.3336 76.4019 87.2482 76.5261 87.1279C76.6634 86.9706 76.7596 86.7748 76.8045 86.5615C76.8885 86.2075 76.9262 85.8419 76.9166 85.4759C76.9277 85.1212 76.8899 84.7667 76.8045 84.4247C76.7505 84.2085 76.6465 84.0118 76.5029 83.854C76.3649 83.7113 76.1934 83.6147 76.0081 83.5751C75.7165 83.5265 75.4215 83.5079 75.1267 83.5193H74.6474ZM73.5688 82.5195H75.5288C75.8693 82.5078 76.2098 82.5453 76.5416 82.6311C76.8476 82.7297 77.124 82.9179 77.3418 83.176C77.5713 83.4503 77.7441 83.7769 77.8482 84.1329C77.9739 84.5857 78.0327 85.0581 78.0222 85.5317C78.0302 85.9578 77.9753 86.3825 77.8598 86.7889C77.7491 87.1824 77.5541 87.5402 77.2916 87.8316C77.0781 88.0539 76.8195 88.2158 76.5377 88.3036C76.2285 88.4002 75.9078 88.4436 75.5868 88.4324H73.5688V82.5195Z" fill="#09063D"/>
<path d="M154.146 94.7098L153.408 92.5215L152.689 94.7098H154.146ZM156.118 97.0569H154.958L154.498 95.7096H152.36L151.924 97.0569H150.764L152.832 91.1441H153.972L156.118 97.0569ZM144.521 97.0569V95.9842L147.327 92.1224H144.842V91.1227H148.738V92.0452L145.823 96.0357H148.831V97.0355L144.521 97.0569ZM137.949 97.0569V91.1441H141.892V92.1439H139.027V93.4569H141.691V94.4567H139.027V96.0572H141.996V97.0569H137.949ZM132.15 92.1439V93.8259H132.734C133.019 93.845 133.305 93.8131 133.581 93.7315C133.718 93.6774 133.836 93.5749 133.917 93.4397C133.999 93.3043 134.041 93.1438 134.037 92.9806C134.045 92.7854 133.984 92.5943 133.867 92.4485C133.756 92.307 133.604 92.2128 133.438 92.1825C133.181 92.1491 132.923 92.1362 132.664 92.1439H132.15ZM131.049 97.0569V91.1441H132.773C133.199 91.1263 133.627 91.1551 134.048 91.2299C134.358 91.3195 134.631 91.5239 134.822 91.8092C135.039 92.1441 135.148 92.551 135.131 92.9634C135.141 93.2798 135.08 93.5939 134.953 93.8774C134.847 94.1087 134.694 94.3088 134.505 94.461C134.338 94.5941 134.148 94.6889 133.948 94.7399C133.58 94.8056 133.207 94.8344 132.835 94.8257H132.135V97.0569H131.049ZM122.768 97.0569V91.1441H124.384L125.339 95.1775L126.282 91.1441H127.902V97.0569H126.904V92.4013L125.853 97.0569H124.817L123.773 92.4013V97.0569H122.768ZM118.612 97.0569V91.1441H119.691V97.0569H118.612ZM112.203 97.0569V91.1913H113.282V96.0572H115.972V97.0569H112.203ZM104.197 94.3494C103.99 94.4588 103.81 94.624 103.675 94.83C103.565 94.994 103.505 95.192 103.501 95.3964C103.497 95.5078 103.514 95.6189 103.552 95.7225C103.589 95.826 103.646 95.9196 103.718 95.9971C103.794 96.0772 103.885 96.1391 103.984 96.179C104.083 96.2188 104.189 96.2358 104.294 96.2288C104.451 96.229 104.606 96.194 104.75 96.1258C104.926 96.0382 105.089 95.921 105.233 95.7782L104.197 94.3494ZM104.584 93.1179L104.858 92.8819C104.941 92.8268 105.011 92.7513 105.063 92.6613C105.116 92.5712 105.149 92.4691 105.16 92.3627C105.16 92.2926 105.147 92.2231 105.122 92.1588C105.097 92.0945 105.059 92.0368 105.013 91.9894C104.906 91.8855 104.768 91.8316 104.626 91.8392C104.487 91.8273 104.349 91.8749 104.24 91.9722C104.197 92.0098 104.163 92.0574 104.14 92.1117C104.116 92.1659 104.104 92.2253 104.104 92.2855C104.137 92.4859 104.233 92.6669 104.375 92.7961L104.584 93.1179ZM107.359 96.3403L106.741 97.1985C106.422 97.0216 106.129 96.7931 105.871 96.5206C105.67 96.7249 105.437 96.8864 105.183 96.9968C104.906 97.1064 104.614 97.1588 104.321 97.1513C104.046 97.1737 103.77 97.1296 103.511 97.0222C103.253 96.9148 103.019 96.7466 102.825 96.5291C102.574 96.2279 102.436 95.8322 102.438 95.4221C102.436 95.053 102.545 94.6935 102.747 94.4009C102.99 94.0606 103.303 93.7898 103.66 93.6114C103.496 93.4041 103.358 93.1731 103.25 92.9248C103.163 92.733 103.115 92.5218 103.111 92.3069C103.11 92.1328 103.144 91.9606 103.211 91.8031C103.278 91.6456 103.376 91.5069 103.497 91.3973C103.811 91.1272 104.203 90.9944 104.599 91.024C104.989 90.9989 105.373 91.1383 105.674 91.4144C105.797 91.5331 105.896 91.6802 105.962 91.8455C106.029 92.0107 106.063 92.1902 106.06 92.3713C106.059 92.6151 105.992 92.8527 105.867 93.0535C105.654 93.35 105.392 93.5978 105.094 93.783L105.825 94.8772C105.927 94.6651 106.002 94.4384 106.049 94.2035L106.977 94.4352C106.913 94.7073 106.831 94.974 106.733 95.2333C106.677 95.3856 106.604 95.5297 106.517 95.6624C106.774 95.9186 107.056 96.1444 107.355 96.3361L107.359 96.3403ZM91.2314 95.1389L92.2791 95.0231C92.3134 95.3505 92.4502 95.6543 92.6656 95.8812C92.8851 96.0732 93.1597 96.1707 93.4388 96.1558C93.7142 96.1756 93.9873 96.0892 94.2119 95.9113C94.292 95.8446 94.3573 95.7586 94.4029 95.6597C94.4484 95.5608 94.473 95.4516 94.4748 95.3406C94.4768 95.2108 94.4371 95.0846 94.3627 94.9844C94.2571 94.8625 94.1234 94.7749 93.9761 94.7313C93.8524 94.6798 93.5663 94.594 93.1218 94.4695C92.6825 94.3816 92.268 94.1803 91.9118 93.8817C91.6541 93.634 91.4859 93.2911 91.4383 92.9165C91.3907 92.5418 91.4669 92.1607 91.6528 91.8435C91.815 91.5736 92.0467 91.3643 92.3177 91.2428C92.6494 91.0961 93.0045 91.026 93.3615 91.0368C93.9002 90.9919 94.4351 91.1674 94.8652 91.5303C95.0338 91.6936 95.1685 91.8955 95.26 92.1222C95.3514 92.3489 95.3974 92.5949 95.3948 92.8433L94.3163 92.8862C94.2953 92.6344 94.1906 92.4004 94.0225 92.2297C93.8245 92.0783 93.5857 92.0071 93.346 92.028C93.0892 92.0102 92.8341 92.0855 92.6192 92.2426C92.5651 92.2831 92.5211 92.3382 92.4914 92.4028C92.4616 92.4673 92.4471 92.5391 92.4491 92.6116C92.4482 92.6811 92.4625 92.7498 92.4907 92.8119C92.519 92.8739 92.5605 92.9274 92.6115 92.9677C92.914 93.1696 93.2487 93.3051 93.5973 93.3668C93.9976 93.459 94.3868 93.6031 94.757 93.7959C94.9969 93.9355 95.1995 94.1427 95.3446 94.3966C95.4921 94.6837 95.5657 95.0102 95.5572 95.3406C95.5573 95.6789 95.4686 96.0099 95.3021 96.2931C95.1306 96.5905 94.879 96.8202 94.583 96.9496C94.2134 97.1075 93.8192 97.1819 93.4233 97.1685C92.8682 97.2094 92.3186 97.0249 91.877 96.6493C91.4929 96.2583 91.2614 95.7164 91.2314 95.1389ZM87.7523 91.1441H88.7728V91.9379C88.7793 92.1995 88.7532 92.4608 88.6955 92.7146C88.6417 92.9105 88.5416 93.0868 88.4056 93.2252C88.2512 93.3838 88.068 93.5038 87.8682 93.577L87.6711 93.1093C87.8421 93.0568 87.9945 92.9475 88.1079 92.7961C88.2015 92.6369 88.2487 92.4497 88.2432 92.2597H87.7523V91.1441ZM83.6198 97.0569V91.1441H84.6983V97.0569H83.6198ZM77.8212 92.1439V93.8259H78.4088C78.6937 93.8447 78.9795 93.8128 79.2554 93.7315C79.392 93.6774 79.5089 93.5748 79.5878 93.4397C79.6712 93.3047 79.7144 93.1442 79.7115 92.9806C79.7177 92.7857 79.6569 92.5955 79.5414 92.4485C79.4286 92.3078 79.2759 92.2139 79.1085 92.1825C78.8519 92.1488 78.5935 92.1359 78.3353 92.1439H77.8212ZM76.7426 97.0569V91.1441H78.4668C78.8935 91.1263 79.3208 91.1551 79.7425 91.2299C80.0514 91.3214 80.3237 91.5254 80.5156 91.8092C80.7302 92.1456 80.8376 92.5517 80.821 92.9634C80.8302 93.2792 80.7705 93.5927 80.647 93.8774C80.5453 94.0934 80.4023 94.282 80.228 94.4303C80.0538 94.5785 79.8524 94.6827 79.6381 94.7356C79.2701 94.8014 78.8974 94.8301 78.5247 94.8214H77.8251V97.0526L76.7426 97.0569ZM69.7147 97.0569V91.1441H73.6578V92.1439H70.8203V93.4569H73.4838V94.4567H70.8203V96.0572H73.7892V97.0569H69.7147Z" fill="#09063D"/>
<path fill-rule="evenodd" clip-rule="evenodd" d="M23.0746 64.3048C29.1825 71.9726 31.7687 69.0548 31.5406 57.6754H33.0869L33.2029 65.5277C32.5998 74.1867 38.0853 65.4891 42.2487 62.5241L43.0605 63.1034C34.4051 70.6853 32.7274 79.8678 35.4836 90.05H27.6555C29.8165 81.095 29.8745 72.4832 22.4368 65.0772L23.0746 64.3048Z" fill="#68E500"/>
<path fill-rule="evenodd" clip-rule="evenodd" d="M25.394 51.3678C29.6464 54.6718 29.9324 60.9193 25.626 64.3691C21.5051 61.1724 20.9562 54.9292 25.394 51.3678Z" fill="#68E500"/>
<path fill-rule="evenodd" clip-rule="evenodd" d="M33.1333 49.4584C34.7028 52.7151 33.2261 56.3667 29.8706 56.9502C28.3552 53.8007 29.6773 50.0548 33.1333 49.4584Z" fill="#68E500"/>
<path fill-rule="evenodd" clip-rule="evenodd" d="M39.9176 43.2065C41.4871 46.4633 40.0104 50.1148 36.6549 50.6984C35.1395 47.5489 36.4616 43.803 39.9176 43.2065Z" fill="#68E500"/>
<path fill-rule="evenodd" clip-rule="evenodd" d="M46.1105 42.7475C47.1388 46.2617 45.1054 49.5657 41.7074 49.4798C40.7178 46.0858 42.6159 42.6574 46.1105 42.7475Z" fill="#68E500"/>
<path fill-rule="evenodd" clip-rule="evenodd" d="M49.2109 38.8298C50.8345 40.4089 50.6876 43.0048 48.7663 44.2106C47.1968 42.6787 47.22 40.0656 49.2109 38.8298Z" fill="#68E500"/>
<path fill-rule="evenodd" clip-rule="evenodd" d="M32.5689 37.5898C36.0481 39.3062 36.9952 43.7215 34.3433 46.8452C31.0072 45.189 29.8358 40.7951 32.5689 37.5898Z" fill="#68E500"/>
<path fill-rule="evenodd" clip-rule="evenodd" d="M29.3448 43.022C31.6991 45.8025 31.1192 49.8874 27.8952 51.4922C25.6144 48.7932 26.028 44.6268 29.3448 43.0092" fill="#68E500"/>
<path fill-rule="evenodd" clip-rule="evenodd" d="M43.1301 51.0246C43.8491 56.5469 40.0607 60.8935 35.0121 59.7994C34.3201 54.4658 37.9307 49.8961 43.1301 51.0246Z" fill="#68E500"/>
<path fill-rule="evenodd" clip-rule="evenodd" d="M50.2546 45.0731C51.8782 46.6522 51.7313 49.2481 49.81 50.4539C48.2405 48.922 48.2637 46.3089 50.2546 45.0731Z" fill="#68E500"/>
<path fill-rule="evenodd" clip-rule="evenodd" d="M42.3685 36.7059C43.9921 38.285 43.8452 40.8809 41.9239 42.0867C40.3544 40.5548 40.3776 37.9417 42.3685 36.7059Z" fill="#68E500"/>
<path fill-rule="evenodd" clip-rule="evenodd" d="M19.29 37.7357C20.9136 39.3148 20.7667 41.9107 18.8454 43.1165C17.2759 41.5846 17.2991 38.9715 19.29 37.7357Z" fill="#68E500"/>
<path fill-rule="evenodd" clip-rule="evenodd" d="M14.8831 38.8943C16.5067 40.4733 16.3598 43.0693 14.4386 44.275C12.8691 42.7432 12.8923 40.1301 14.8831 38.8943Z" fill="#68E500"/>
<path fill-rule="evenodd" clip-rule="evenodd" d="M12.9928 45.5623C15.1499 45.4078 16.7 47.3602 16.0854 49.7201C14.0017 49.866 12.3627 48.0038 12.9928 45.5623Z" fill="#68E500"/>
<path fill-rule="evenodd" clip-rule="evenodd" d="M17.5737 44.5968C19.7308 44.4424 21.281 46.3947 20.6663 48.7547C18.5827 48.9006 16.9436 47.0383 17.5737 44.5968Z" fill="#68E500"/>
<path fill-rule="evenodd" clip-rule="evenodd" d="M10.2983 50.5525C13.3523 49.6944 16.0544 51.9986 15.7916 55.56C12.8381 56.4182 10.02 54.2212 10.2983 50.5525Z" fill="#68E500"/>
<path fill-rule="evenodd" clip-rule="evenodd" d="M10.1167 58.4692C12.9232 55.6887 16.9281 56.5211 18.3933 60.4602C15.6872 63.1419 11.6205 62.5241 10.1167 58.4692Z" fill="#68E500"/>
<path fill-rule="evenodd" clip-rule="evenodd" d="M17.7012 62.8201C19.1779 61.0651 21.5089 61.314 22.5295 63.4852C21.103 65.1715 18.7488 65.0556 17.7012 62.8201Z" fill="#68E500"/>
<path fill-rule="evenodd" clip-rule="evenodd" d="M16.8005 72.4832C15.8843 68.8317 18.0994 65.5492 21.5747 65.8023C22.4522 69.3251 20.3763 72.7492 16.8005 72.4832Z" fill="#68E500"/>
<path fill-rule="evenodd" clip-rule="evenodd" d="M32.0083 31.4368C33.6319 33.0201 33.485 35.6118 31.5637 36.8175C29.9981 35.2985 30.029 32.664 32.0083 31.4368Z" fill="#68E500"/>
<path fill-rule="evenodd" clip-rule="evenodd" d="M26.693 35.7275C29.2985 36.1566 30.6979 38.9114 29.4531 41.5588C26.9365 41.1297 25.4095 38.4479 26.693 35.7275Z" fill="#68E500"/>
<path fill-rule="evenodd" clip-rule="evenodd" d="M25.1505 39.0402C26.376 42.0438 24.8645 45.2061 21.8415 45.5022C20.6586 42.593 22.0348 39.3405 25.1505 39.0402Z" fill="#68E500"/>
<path fill-rule="evenodd" clip-rule="evenodd" d="M35.3985 34.5391C38.7733 34.8738 40.7487 38.3022 39.3223 41.7992C36.0634 41.4731 33.9102 38.1348 35.3985 34.5391Z" fill="#68E500"/>
<path fill-rule="evenodd" clip-rule="evenodd" d="M43.1533 63.8971C46.7755 62.494 50.2547 64.9998 50.2547 69.3336C46.7755 70.6852 43.1688 68.3596 43.1688 63.8971" fill="#68E500"/>
<path fill-rule="evenodd" clip-rule="evenodd" d="M52.8525 52.2989C52.3654 54.6375 50.2392 55.7316 48.3721 54.4186C48.8437 52.1616 50.9312 50.9516 52.8525 52.2989Z" fill="#68E500"/>
<path fill-rule="evenodd" clip-rule="evenodd" d="M21.6481 60.5373C18.0066 59.6277 15.5673 55.3411 17.821 49.8102C18.8135 49.7386 19.8028 49.997 20.6623 50.5525C20.4806 51.9942 20.6623 53.3029 21.6481 54.3156C21.0661 56.3465 21.0661 58.5278 21.6481 60.5588" fill="#68E500"/>
<path fill-rule="evenodd" clip-rule="evenodd" d="M25.769 50.2394C25.769 48.0939 25.1311 46.8067 24.1454 45.9485C21.3891 47.6648 20.6082 50.1149 22.0308 53.4446C22.8619 51.7025 23.9289 50.338 25.769 50.2265" fill="#68E500"/>
<path fill-rule="evenodd" clip-rule="evenodd" d="M44.3246 55.1953C44.5892 54.4006 44.685 53.5489 44.6046 52.7064C44.5241 51.8639 44.2695 51.0534 43.8607 50.338C44.9779 48.8791 46.2807 48.4886 47.8618 48.4071C48.8514 52.7967 47.3592 54.7533 44.3246 55.1953Z" fill="#68E500"/>
<path fill-rule="evenodd" clip-rule="evenodd" d="M39.6857 60.6361C41.4214 59.7522 43.0566 58.6837 43.8607 56.1607C45.1054 56.3753 46.1801 55.8518 47.1079 54.7791L49.2263 56.1307C47.6259 62.2023 44.224 63.1462 39.6857 60.6361Z" fill="#68E500"/>
<path fill-rule="evenodd" clip-rule="evenodd" d="M47.5989 61.859C48.8282 59.971 50.5562 59.7994 52.5587 60.5717L52.6166 64.3048C50.5214 64.9913 48.921 63.9186 47.5912 61.859" fill="#68E500"/>
</g>
<defs>
<clipPath id="clip0_23_2491">
<rect width="167" height="123.581" fill="white" transform="translate(0 0.113403)"/>
</clipPath>
</defs>
</svg>
