<svg width="30" height="30" viewBox="0 0 30 30" fill="none" xmlns="http://www.w3.org/2000/svg">
<g clip-path="url(#clip0_5_639)">
<path d="M3.75 3.75C2.75544 3.75 1.80161 4.14509 1.09835 4.84835C0.395088 5.55161 0 6.50544 0 7.5L0 22.5188C0.00495661 23.5101 0.402232 24.4591 1.10496 25.1583C1.80768 25.8575 2.75868 26.25 3.75 26.25H14.0625C14.3111 26.25 14.5496 26.1512 14.7254 25.9754C14.9012 25.7996 15 25.5611 15 25.3125C15 25.0639 14.9012 24.8254 14.7254 24.6496C14.5496 24.4738 14.3111 24.375 14.0625 24.375H3.75C3.33727 24.3751 2.93605 24.2389 2.60857 23.9877C2.28109 23.7365 2.04565 23.3843 1.93875 22.9856L12.5138 16.4775L15 17.9681L28.125 10.0931V15.9375C28.125 16.1861 28.2238 16.4246 28.3996 16.6004C28.5754 16.7762 28.8139 16.875 29.0625 16.875C29.3111 16.875 29.5496 16.7762 29.7254 16.6004C29.9012 16.4246 30 16.1861 30 15.9375V7.5C30 6.50544 29.6049 5.55161 28.9016 4.84835C28.1984 4.14509 27.2446 3.75 26.25 3.75H3.75ZM10.7025 15.39L1.875 20.8219V10.0931L10.7025 15.39ZM1.875 7.90688V7.5C1.875 7.00272 2.07254 6.52581 2.42417 6.17417C2.77581 5.82254 3.25272 5.625 3.75 5.625H26.25C26.7473 5.625 27.2242 5.82254 27.5758 6.17417C27.9275 6.52581 28.125 7.00272 28.125 7.5V7.90688L15 15.7819L1.875 7.90688Z" fill="white" fill-opacity="0.83"/>
<path d="M30 23.4375C30 25.178 29.3086 26.8472 28.0779 28.0779C26.8472 29.3086 25.178 30 23.4375 30C21.697 30 20.0278 29.3086 18.7971 28.0779C17.5664 26.8472 16.875 25.178 16.875 23.4375C16.875 21.697 17.5664 20.0278 18.7971 18.7971C20.0278 17.5664 21.697 16.875 23.4375 16.875C25.178 16.875 26.8472 17.5664 28.0779 18.7971C29.3086 20.0278 30 21.697 30 23.4375ZM26.2631 20.2894C26.1575 20.2261 26.0404 20.1842 25.9186 20.1661C25.7968 20.1481 25.6726 20.1542 25.5532 20.1842C25.4337 20.2141 25.3214 20.2673 25.2225 20.3407C25.1236 20.4141 25.0401 20.5062 24.9769 20.6119L22.7831 24.2681L21.7575 23.2425C21.5815 23.0665 21.3427 22.9676 21.0938 22.9676C20.8448 22.9676 20.606 23.0665 20.43 23.2425C20.254 23.4185 20.1551 23.6573 20.1551 23.9062C20.1551 24.1552 20.254 24.394 20.43 24.57L21.8813 26.0194C22.0323 26.1707 22.2159 26.2856 22.418 26.3554C22.6202 26.4251 22.8355 26.4478 23.0478 26.4218C23.26 26.3957 23.4635 26.3216 23.6428 26.2051C23.8221 26.0886 23.9725 25.9327 24.0825 25.7494L26.5856 21.5756C26.6489 21.47 26.6908 21.3529 26.7089 21.2311C26.7269 21.1093 26.7208 20.9851 26.6908 20.8657C26.6609 20.7462 26.6077 20.6339 26.5343 20.535C26.4609 20.4361 26.3688 20.3526 26.2631 20.2894Z" fill="white" fill-opacity="0.83"/>
</g>
<defs>
<clipPath id="clip0_5_639">
<rect width="30" height="30" fill="white"/>
</clipPath>
</defs>
</svg>
