<svg width="22" height="28" viewBox="0 0 22 28" fill="none" xmlns="http://www.w3.org/2000/svg">
<path d="M18.726 5.69861H16.0547C16.0547 2.74689 13.664 0.35614 10.7123 0.35614C7.76056 0.35614 5.36981 2.74689 5.36981 5.69861H2.69858C1.2294 5.69861 0.0273438 6.90066 0.0273438 8.36984V24.3972C0.0273438 25.8664 1.2294 27.0685 2.69858 27.0685H18.726C20.1952 27.0685 21.3972 25.8664 21.3972 24.3972V8.36984C21.3972 6.90066 20.1952 5.69861 18.726 5.69861ZM8.04104 11.0411C8.04104 11.7757 7.44002 12.3767 6.70543 12.3767C5.97084 12.3767 5.36981 11.7757 5.36981 11.0411V8.36984H8.04104V11.0411ZM10.7123 3.02737C12.1815 3.02737 13.3835 4.22943 13.3835 5.69861H8.04104C8.04104 4.22943 9.2431 3.02737 10.7123 3.02737ZM16.0547 11.0411C16.0547 11.7757 15.4537 12.3767 14.7191 12.3767C13.9845 12.3767 13.3835 11.7757 13.3835 11.0411V8.36984H16.0547V11.0411Z" fill="#2A4178"/>
</svg>
