<svg width="28" height="27" viewBox="0 0 28 27" fill="none" xmlns="http://www.w3.org/2000/svg">
<path d="M8.36966 21.5615C6.90048 21.5615 5.71178 22.7636 5.71178 24.2327C5.71178 25.7019 6.90048 26.904 8.36966 26.904C9.83883 26.904 11.0409 25.7019 11.0409 24.2327C11.0409 22.7636 9.83883 21.5615 8.36966 21.5615ZM0.355957 1.52727C0.355957 2.26186 0.956984 2.86288 1.69157 2.86288H3.02719L7.83541 13.0002L6.03233 16.2591C5.05733 18.0488 6.33952 20.2259 8.36966 20.2259H23.0614C23.796 20.2259 24.3971 19.6249 24.3971 18.8903C24.3971 18.1557 23.796 17.5547 23.0614 17.5547H8.36966L9.83883 14.8834H19.7892C20.7909 14.8834 21.6724 14.3358 22.1265 13.5077L26.908 4.8396C27.0206 4.63715 27.0783 4.40882 27.0755 4.17721C27.0728 3.94559 27.0096 3.71871 26.8922 3.51902C26.7748 3.31933 26.6073 3.15376 26.4063 3.03868C26.2052 2.9236 25.9777 2.863 25.746 2.86288H5.9789L5.08404 0.952953C4.9767 0.724972 4.80663 0.532288 4.59374 0.397462C4.38086 0.262635 4.13397 0.191246 3.88198 0.191652H1.69157C0.956984 0.191652 0.355957 0.79268 0.355957 1.52727V1.52727ZM21.7258 21.5615C20.2566 21.5615 19.0679 22.7636 19.0679 24.2327C19.0679 25.7019 20.2566 26.904 21.7258 26.904C23.195 26.904 24.3971 25.7019 24.3971 24.2327C24.3971 22.7636 23.195 21.5615 21.7258 21.5615Z" fill="#2A4178"/>
</svg>
